<svg width="430" height="471" viewBox="0 0 430 471" fill="none" xmlns="http://www.w3.org/2000/svg">
<path d="M29.9888 414.762H173.328L114.688 448.889L61.2212 437.033L29.9888 414.762Z" fill="#393965"/>
<path d="M141.174 464.208C141.174 464.208 162.004 472.177 180.111 470.638C198.204 469.113 201.588 464.812 201.588 459.921C201.588 455.03 165.788 442.047 140.279 453.437L141.174 464.208Z" fill="#393965"/>
<path d="M68.4446 416.122C35.3823 399.883 13.4645 406.766 4.5488 416.589C-4.3669 426.399 0.586288 437.445 42.2342 449.782C80.0571 460.979 121.237 458.616 141.16 464.222L140.266 453.45C133.4 449.466 97.7784 430.548 68.4446 416.136V416.122Z" fill="#4A4A81"/>
<path d="M140.266 453.437C140.266 453.437 139.289 463.974 141.16 464.208C161.537 466.86 182.34 470.981 182.34 459.331C182.34 447.68 140.266 453.437 140.266 453.437Z" fill="#E59D67"/>
<path d="M61.2212 464.208C61.2212 464.208 40.3904 472.177 22.2839 470.638C4.19106 469.113 0.806396 464.812 0.806396 459.921C0.806396 455.03 36.6068 442.047 62.1156 453.437L61.2212 464.208Z" fill="#393965"/>
<path d="M133.936 416.122C166.999 399.883 188.917 406.766 197.832 416.589C206.748 426.412 201.795 437.445 160.147 449.782C122.324 460.979 81.1439 458.616 61.2212 464.222L62.1155 453.45C68.9812 449.466 104.603 430.548 133.936 416.136V416.122Z" fill="#5B5B9C"/>
<path d="M62.1155 453.437C62.1155 453.437 63.0924 463.974 61.2212 464.208C40.8444 466.86 20.0411 470.981 20.0411 459.331C20.0411 447.68 62.1155 453.437 62.1155 453.437Z" fill="#E59D67"/>
<path d="M80.8001 244.304C73.8932 250.115 69.5729 258.881 69.1602 267.88C68.9538 272.441 69.6968 276.989 69.7518 281.564C69.9582 302.172 50.5032 320.637 49.0448 341.19C48.1367 353.871 52.3194 366.978 60.9324 376.348C69.5454 385.718 88.2023 391.035 100.86 389.688V302.241L80.8001 244.304Z" fill="#A02606"/>
<path d="M121.595 244.304C128.502 250.115 132.822 258.881 133.235 267.88C133.441 272.441 132.698 276.989 132.643 281.564C132.437 302.172 151.892 320.637 153.35 341.19C154.258 353.871 150.076 366.978 141.463 376.348C132.85 385.718 114.193 391.035 101.535 389.688L100.847 302.241L121.581 244.304H121.595Z" fill="#A02606"/>
<path d="M145.934 335.241C142.99 319.455 123.356 320.087 116.091 314.729C113.518 320.39 103.323 327.602 101.356 328.949C101.149 329.1 101.025 329.169 101.025 329.169C94.5864 325.418 86.2898 314.729 86.2898 314.729H86.3036C79.0389 320.087 59.4051 319.455 56.4607 335.241C53.1036 353.253 41.1747 404.224 46.0729 408.497C50.971 412.77 59.5565 408.057 59.5565 408.057L70.6873 361.386C70.6873 361.386 82.1484 384.99 74.815 408.799L101.204 407.673L127.594 408.799C120.26 384.99 131.721 361.386 131.721 361.386L142.852 408.057C142.852 408.057 151.438 412.77 156.336 408.497C161.22 404.224 149.305 353.239 145.948 335.241H145.934Z" fill="#F77A4D"/>
<path d="M89.5231 309.028C89.2755 310.058 88.9728 311.075 88.56 312.05C88.106 313.108 87.3217 313.974 86.3036 314.729H86.2898C86.2898 314.729 94.5864 325.432 101.025 329.169C101.025 329.169 101.149 329.086 101.356 328.949C103.323 327.602 113.505 320.39 116.091 314.729C115.073 313.974 114.289 313.094 113.835 312.05C113.477 311.198 113.202 310.319 112.968 309.412C110.987 311.102 108.882 312.613 106.557 313.767C101.218 315.897 93.4169 313.877 89.5369 309.028H89.5231Z" fill="#EEB580"/>
<path d="M113.835 291.291H88.5601C88.5601 291.291 91.4356 300.894 89.5232 309.028C93.4031 313.877 101.204 315.897 106.543 313.767C108.868 312.6 110.973 311.102 112.954 309.412C110.863 301.196 113.821 291.291 113.821 291.291H113.835Z" fill="#EDA264"/>
<path d="M142.495 411.671H59.8868C58.0568 411.671 56.5571 410.173 56.5571 408.346V357.704C56.5571 355.877 58.0568 354.38 59.8868 354.38H142.495C144.324 354.38 145.824 355.877 145.824 357.704V408.346C145.824 410.173 144.324 411.671 142.495 411.671Z" fill="#393965"/>
<path d="M54.7684 413.168V414.391C54.7684 416.301 56.3232 417.853 58.2357 417.853H144.173C146.086 417.853 147.64 416.301 147.64 414.391V413.168C147.64 412.344 146.966 411.671 146.141 411.671H56.2819C55.4564 411.671 54.7822 412.344 54.7822 413.168H54.7684Z" fill="#282849"/>
<path d="M78.7776 411.671H65.2939V412.715H78.7776V411.671Z" fill="#D8D8FF"/>
<path d="M137.087 411.671H123.604V412.715H137.087V411.671Z" fill="#D8D8FF"/>
<path d="M128.172 267.948C128.172 283.844 113.574 307.928 100.833 307.928C89.7983 307.928 74.9801 283.858 74.9801 267.948C74.9801 252.039 84.914 239.152 100.833 239.152C116.752 239.152 128.172 252.039 128.172 267.948Z" fill="#EEB580"/>
<path d="M91.9998 274.777C91.4769 274.832 90.9678 275.23 90.5826 275.793C89.9772 275.395 89.4681 274.859 89.1379 274.213C88.7664 275.202 89.193 276.398 90.0185 277.043C89.9635 277.25 89.9359 277.456 89.9084 277.662C88.8627 277.758 87.7758 277.428 86.9778 276.755C87.6244 277.744 88.7389 278.376 89.9084 278.527C90.0735 280.286 91.3256 281.536 92.4125 281.371C93.5407 281.206 94.0911 279.654 93.981 277.84C93.8709 276.041 93.1555 274.639 92.0135 274.777H91.9998Z" fill="#393965"/>
<path d="M115.431 276.755C114.633 277.442 113.546 277.758 112.5 277.662C112.473 277.456 112.445 277.236 112.39 277.043C113.216 276.398 113.642 275.216 113.271 274.213C112.941 274.859 112.432 275.395 111.826 275.793C111.427 275.216 110.918 274.832 110.409 274.777C109.281 274.653 108.552 276.041 108.442 277.84C108.345 279.64 108.882 281.206 110.01 281.371C111.097 281.536 112.335 280.286 112.514 278.527C113.684 278.376 114.798 277.744 115.445 276.755H115.431Z" fill="#393965"/>
<path d="M85.0516 271.974C84.8452 271.795 85.0791 270.93 85.9046 269.858C86.7301 268.786 88.2023 267.605 90.0598 266.973C91.9309 266.355 93.7471 266.437 94.9579 266.822C96.1824 267.206 96.8016 267.783 96.719 268.058C96.5264 268.663 93.7746 268.017 90.6376 269.13C87.4731 270.133 85.4918 272.372 85.0378 271.988L85.0516 271.974Z" fill="#A02606"/>
<path d="M117.343 271.617C117.55 271.438 117.316 270.572 116.49 269.501C115.665 268.429 114.193 267.248 112.335 266.616C110.464 265.997 108.648 266.08 107.437 266.465C106.213 266.849 105.593 267.426 105.676 267.701C105.869 268.306 108.62 267.66 111.757 268.773C114.922 269.776 116.903 272.015 117.357 271.63L117.343 271.617Z" fill="#A02606"/>
<path d="M92.9629 294.835C92.9629 294.835 102.346 298.215 110.175 294.011C110.175 294.011 107.382 301.141 101.204 301.251C95.0267 301.361 92.9629 294.835 92.9629 294.835Z" fill="white"/>
<g style="mix-blend-mode:multiply" opacity="0.8">
<path d="M98.1086 288.735C97.8471 287.677 97.8609 286.537 98.2462 285.424C98.4525 284.875 98.7828 284.325 99.3056 283.885C99.8284 283.46 100.53 283.226 101.191 283.24C101.837 283.24 102.553 283.446 103.062 283.899C103.585 284.325 103.901 284.875 104.107 285.438C104.493 286.551 104.52 287.677 104.273 288.735C103.956 287.705 103.626 286.702 103.144 285.891C102.635 285.067 102.002 284.6 101.191 284.641C100.393 284.627 99.7596 285.094 99.2643 285.905C98.7828 286.716 98.4388 287.705 98.1086 288.735Z" fill="#D37034"/>
</g>
<path d="M69.9719 260.2C66.9036 270.421 66.5597 281.206 68.9675 291.634C71.1138 300.935 75.4341 310.319 73.4253 319.565C71.6092 327.918 64.7573 335.186 64.0281 343.663C63.6291 348.307 65.17 353.074 68.3483 356.99C67.399 350.162 72.2696 343.856 77.5117 338.594C82.7538 333.318 88.7526 328.152 90.7064 321.53C92.9078 314.083 89.5644 306.252 85.9871 299.053C82.4098 291.854 78.461 284.353 79.4379 276.714C80.0295 272.043 82.4511 267.66 83.1528 262.989C83.2766 262.137 83.3454 261.258 83.0427 260.433C82.4786 258.894 80.7037 257.782 78.8325 257.301C76.9476 256.82 74.9388 256.847 72.985 256.889" fill="#AF361B"/>
<path d="M132.423 260.2C135.491 270.421 135.835 281.206 133.427 291.634C131.281 300.935 126.961 310.319 128.97 319.565C130.786 327.918 137.638 335.186 138.367 343.663C138.766 348.307 137.225 353.074 134.047 356.99C134.996 350.162 130.125 343.856 124.883 338.594C119.641 333.318 113.642 328.152 111.689 321.53C109.487 314.083 112.831 306.252 116.408 299.053C119.985 291.854 123.934 284.353 122.957 276.714C122.365 272.043 119.944 267.66 119.242 262.989C119.118 262.137 119.05 261.258 119.352 260.433C119.916 258.894 121.691 257.782 123.562 257.301C125.447 256.82 127.456 256.847 129.41 256.889" fill="#AF361B"/>
<path d="M117.453 268.965C120.824 274.584 121.595 281.522 119.049 287.183C124.347 281.33 129.795 275.216 131.625 267.715C133.235 261.148 131.873 254.017 128.708 247.67C128.048 246.337 121.031 236.637 115.431 238.946C110.739 240.883 104.383 247.161 117.453 268.965Z" fill="#AF361B"/>
<path d="M85.3955 260.282C85.3955 260.282 77.0301 274.516 84.2948 286.455C84.2948 286.455 76.521 284.93 75.9294 273.705C75.3378 262.48 85.3955 260.282 85.3955 260.282Z" fill="#AF361B"/>
<path d="M97.118 230.18C91.7246 230.112 74.1546 237.434 67.798 254.347C65.5691 260.282 66.8074 270.133 67.5091 271.672C68.6924 274.254 72.4072 263.511 75.4204 264.074C78.4336 264.624 81.5568 264.225 84.57 263.662C89.4406 262.755 94.5039 261.299 97.7372 257.85C96.6777 260.488 94.0498 262.563 91.0229 263.126C93.2793 264.527 96.2925 264.417 98.9204 263.744C104.121 262.398 108.29 258.757 110.891 254.416C116.779 244.565 116.325 230.427 97.1318 230.18H97.118Z" fill="#AF361B"/>
<path d="M114.206 288.9C114.206 288.9 114.082 288.9 114.027 288.9C107.795 288.804 102.8 283.652 102.91 277.428C102.965 274.406 104.176 271.589 106.35 269.501C108.524 267.399 111.372 266.231 114.399 266.327C120.632 266.423 125.626 271.575 125.53 277.799C125.434 283.968 120.37 288.914 114.22 288.914L114.206 288.9ZM114.206 267.715C111.62 267.715 109.184 268.704 107.327 270.504C105.428 272.345 104.355 274.804 104.314 277.456C104.231 282.91 108.593 287.416 114.055 287.512C114.11 287.512 114.165 287.512 114.22 287.512C119.614 287.512 124.03 283.185 124.126 277.785C124.209 272.331 119.847 267.825 114.385 267.729C114.33 267.729 114.275 267.729 114.22 267.729L114.206 267.715Z" fill="white"/>
<path d="M88.1747 288.9C88.1747 288.9 88.0509 288.9 87.9958 288.9C81.7631 288.804 76.7687 283.652 76.8787 277.428C76.9338 274.406 78.1445 271.589 80.3184 269.501C82.4923 267.399 85.3542 266.231 88.3673 266.327C91.3943 266.382 94.2148 267.591 96.3061 269.762C98.4112 271.933 99.5395 274.79 99.4844 277.799C99.3881 283.968 94.3249 288.914 88.1747 288.914V288.9ZM88.1747 267.715C85.5881 267.715 83.1528 268.704 81.2953 270.504C79.3966 272.345 78.3234 274.804 78.2821 277.456C78.1996 282.91 82.5611 287.416 88.0234 287.512C88.0784 287.512 88.1334 287.512 88.1885 287.512C93.5819 287.512 97.9985 283.185 98.0948 277.785C98.1361 275.147 97.1454 272.647 95.3018 270.737C93.4581 268.841 90.9953 267.77 88.3398 267.728C88.2848 267.728 88.2298 267.728 88.1747 267.728V267.715Z" fill="white"/>
<path d="M99.1543 280.478L97.9573 279.75C97.9573 279.75 98.8378 278.321 101.149 278.321C103.461 278.321 104.286 279.379 104.383 279.503L103.296 280.382C103.296 280.382 102.69 279.723 101.163 279.723C99.6358 279.723 99.1818 280.451 99.168 280.492L99.1543 280.478Z" fill="white"/>
<path d="M153.708 228.957C153.708 228.957 155.441 236.679 146.54 246.2C146.54 246.2 165.018 240.855 170.37 228.957H153.708Z" fill="#BFBFF5"/>
<path d="M140.499 194.006H179.684C184.211 194.006 187.898 197.674 187.898 202.208V225.564C187.898 230.084 184.225 233.766 179.684 233.766H140.499C135.973 233.766 132.285 230.098 132.285 225.564V202.208C132.285 197.688 135.959 194.006 140.499 194.006Z" fill="#BFBFF5"/>
<path d="M149.965 213.872C149.965 215.947 148.287 217.623 146.209 217.623C144.132 217.623 142.453 215.947 142.453 213.872C142.453 211.798 144.132 210.121 146.209 210.121C148.287 210.121 149.965 211.798 149.965 213.872Z" fill="white"/>
<path d="M163.862 213.872C163.862 215.947 162.183 217.623 160.106 217.623C158.028 217.623 156.349 215.947 156.349 213.872C156.349 211.798 158.028 210.121 160.106 210.121C162.183 210.121 163.862 211.798 163.862 213.872Z" fill="white"/>
<path d="M177.758 213.872C177.758 215.947 176.08 217.623 174.002 217.623C171.924 217.623 170.246 215.947 170.246 213.872C170.246 211.798 171.924 210.121 174.002 210.121C176.08 210.121 177.758 211.798 177.758 213.872Z" fill="white"/>
<path d="M263.641 67.1789L242.997 77.5015L263.783 118.95L284.427 108.627L263.641 67.1789Z" fill="#282849"/>
<path d="M273.981 84.1321L268.917 80.0242L267.652 79.0075C266.276 77.8947 264.336 77.826 262.891 78.8427L251.705 86.6601L251.953 104.342L254.622 114.454L257.539 114.742L261.46 115.127C263.359 115.319 265.216 114.591 266.496 113.19L268.037 111.486C269.536 109.838 269.991 107.488 269.22 105.386L268.876 104.452L268.106 102.364L274.999 89.0231C275.866 87.3607 275.425 85.3137 273.981 84.1321Z" fill="#EEB580"/>
<path d="M254.622 114.522C254.622 114.522 264.941 154.64 274.558 161.193C284.176 167.747 287.877 166.661 287.877 166.661C287.877 166.661 299.077 154.64 286.171 139.843C272.288 123.92 266.51 113.176 266.51 113.176L254.622 114.522Z" fill="#EEB580"/>
<path d="M282.965 144.624L287.863 166.661C287.863 166.661 296.972 156.426 306.809 145.6C303.397 138.785 299.503 132.465 295.995 125.747C289.28 135.488 282.951 144.624 282.951 144.624H282.965Z" fill="#EEB580"/>
<path d="M328.383 96.9917C323.87 93.3784 319.137 95.027 315.037 98.9838C313.551 100.426 312.147 102.171 310.868 104.067C308.584 107.474 302.131 116.858 295.995 125.747C299.503 132.465 303.397 138.785 306.809 145.6C313.523 138.208 320.568 130.556 325.301 125.692C336.955 113.698 334.533 101.924 328.383 96.9917Z" fill="#C6471F"/>
<path d="M273.513 444.873L314.101 208.799L347.535 216.218C347.466 285.379 292.431 452.389 292.431 452.389L273.513 444.873Z" fill="#32325D"/>
<path d="M273.884 443.39L234.699 458.983C232.402 459.904 230.888 462.129 230.888 464.602C230.888 467.941 233.599 470.634 236.942 470.634L291.908 470.565C291.908 470.565 297.288 458.365 292.362 451.921L273.884 443.376V443.39Z" fill="#282849"/>
<path d="M357.606 361.176L358.116 403.3C358.143 405.773 359.684 407.984 361.995 408.864C365.119 410.059 368.613 408.507 369.81 405.388L389.486 354.142C389.486 354.142 380.02 344.745 372.232 347.025L357.606 361.176Z" fill="#282849"/>
<path d="M336.955 293.471C350.356 281.614 364.335 268.37 367.623 262.05C374.31 249.136 371.049 221.479 371.049 221.479L360.262 219.061C356.864 236.386 353.107 253.697 348.264 270.816C345.829 278.935 341.963 286.574 336.968 293.485L336.955 293.471Z" fill="#393965"/>
<path d="M336.955 293.471C341.949 286.56 345.815 278.922 348.251 270.802C353.094 253.683 356.85 236.372 360.248 219.048L334.052 213.195L328.727 235.713L327.695 240.096L272.99 305.987C269.633 310.026 267.941 315.192 268.229 320.427C268.684 328.533 273.829 335.636 281.397 338.603L357.909 368.65L372.218 346.998L309.74 316.58C309.74 316.58 323.031 305.754 336.968 293.444L336.955 293.471Z" fill="#393965"/>
<path d="M363.729 88.7484L336.019 86.4952L318.036 96.8406C316.371 116.693 314.115 208.785 314.115 208.785L360.262 219.061C367.802 180.661 373.636 142.179 385.729 105.647L363.743 88.7484H363.729Z" fill="#EA6F44"/>
<path d="M360.248 219.061L371.049 221.466C388.812 156.261 391.66 110.208 391.66 110.208L385.716 105.647C373.622 142.193 367.788 180.661 360.248 219.061Z" fill="#EA643F"/>
<path d="M384.436 210.447L385.675 207.782L378.3 200.363L363.165 191.185L352.131 196.214C349.695 197.327 348.292 199.909 348.691 202.547L349.434 207.452C349.86 210.255 352.186 212.371 355.02 212.535L368.38 213.277L369.797 214.995C375.19 217.303 380.033 214.322 384.436 210.447Z" fill="#EEB580"/>
<path d="M380.281 201.613C377.681 198.426 375.452 192.477 374.599 188.451C374.475 187.86 374.351 187.256 374.035 186.748C373.718 186.239 373.154 185.827 372.562 185.868C371.682 185.923 371.131 186.844 370.884 187.696C370.375 189.413 370.416 191.254 370.65 193.026C370.994 195.609 371.723 198.151 372.81 200.528" fill="#EEB580"/>
<path d="M415.187 139.115C411.142 145.16 405.996 150.243 400.644 155.505C402.983 157.553 405.212 159.339 407.221 160.726L378.038 202.424L385.661 207.796C385.661 207.796 429.799 177.364 429.675 166.455C429.62 161.454 422.975 150.257 415.187 139.115Z" fill="#EEB580"/>
<path d="M415.187 139.115C405.983 125.981 395.182 112.915 391.66 110.208C385.152 105.208 377.034 103.614 371.393 111.349C366.522 118.04 385.743 142.412 400.644 155.505C405.996 150.243 411.142 145.16 415.187 139.115Z" fill="#C6471F"/>
<path d="M360.922 68.4148C361.335 66.4914 361.899 64.4031 362.642 62.1362L357.276 55.308L337.753 79.612C337.753 79.612 337.973 81.7141 337.574 85.0251C349.269 87.292 356.712 78.7602 360.909 68.4286L360.922 68.4148Z" fill="#E59D67"/>
<path d="M362.408 86.9898C362.408 86.9898 358.019 81.8927 360.936 68.4149C356.74 78.7465 349.296 87.2783 337.601 85.0114C337.45 86.3578 337.188 87.9103 336.776 89.6002C335.345 95.4255 323.031 95.7277 334.561 109.357C334.561 109.357 354.8 106.142 359.67 97.3901C364.541 88.6385 362.408 87.0035 362.408 87.0035V86.9898Z" fill="#EEB580"/>
<path d="M349.09 13.7754C349.09 13.7754 324.021 11.1375 320.664 30.7566L322.343 46.2541C322.343 46.2541 320.623 55.9537 324.531 67.1921C324.861 68.1401 325.287 69.3354 325.741 70.5718C327.379 75.0232 331.066 78.4167 335.634 79.6807L335.854 79.7357C340.133 80.9172 344.701 80.1204 348.306 77.5375C350.108 76.2597 352.144 74.7072 354.208 72.9762C356.547 70.9978 361.211 67.7691 361.267 59.5945C361.432 37.5299 366.66 16.427 349.076 13.7754H349.09Z" fill="#EEB580"/>
<path d="M335.345 2.59196C335.345 2.59196 334.877 7.16701 343.284 11.2337C351.704 15.3004 368.586 15.6439 369.054 27.6242C369.054 27.6242 385.454 46.6387 360.537 70.3795C360.537 70.3795 362.422 55.6102 360.179 55.1431C357.937 54.676 357.111 54.621 357.111 54.621C357.111 54.621 359.932 49.0705 356.932 45.6358C353.933 42.2011 349.668 43.2453 349.324 37.1589C349.324 37.1589 348.306 43.7261 354.717 47.3669C354.717 47.3669 336.335 45.1962 338.702 33.6555C338.702 33.6555 331.534 38.0657 338.482 44.0833C338.482 44.0833 319.701 41.734 328.63 25.8106C328.63 25.8106 320.76 30.262 322.989 40.3464C322.989 40.3464 308.625 31.5397 316.509 17.8833C324.406 4.22689 339.39 13.9952 339.39 13.9952C339.39 13.9952 332.923 9.55757 335.331 2.6057L335.345 2.59196Z" fill="#393965"/>
<path d="M367.196 46.8723C368.724 47.5592 369.412 49.359 369.549 51.0214C369.989 55.94 366.66 60.9409 361.941 62.4522C360.523 62.9056 358.748 62.9743 357.785 61.8339C356.808 60.6799 357.207 58.9213 357.758 57.5062C358.831 54.7722 363.027 44.9901 367.183 46.8586L367.196 46.8723Z" fill="#EEB580"/>
<g style="mix-blend-mode:multiply" opacity="0.8">
<path d="M367.981 50.8978C367.981 50.8978 367.21 50.8978 366.137 51.4886C365.078 52.0519 363.798 53.2197 362.904 54.8409C362.023 56.462 361.638 58.0832 361.445 59.2373C361.253 60.4051 361.225 61.1333 361.28 61.147C361.349 61.147 361.514 60.4463 361.789 59.306C362.078 58.1794 362.491 56.6132 363.344 55.0744C364.183 53.5357 365.353 52.4091 366.316 51.7908C367.279 51.1588 367.994 50.9802 367.967 50.8978H367.981Z" fill="#E59D67"/>
</g>
<g style="mix-blend-mode:multiply" opacity="0.8">
<path d="M362.89 60.2814C362.89 60.2814 363.206 60.0341 363.55 59.5258C363.894 59.0175 364.335 58.2618 364.596 57.3276C364.857 56.3933 364.789 55.4728 364.568 54.8683C364.348 54.2638 364.059 53.9753 364.004 54.0165C363.936 54.0577 364.114 54.3875 364.224 54.9645C364.335 55.5278 364.335 56.3521 364.101 57.2039C363.867 58.0695 363.495 58.8114 363.234 59.3609C362.972 59.9105 362.821 60.2677 362.89 60.2952V60.2814Z" fill="#E59D67"/>
</g>
<path d="M350.191 47.1883C350.425 47.1333 350.397 46.4601 349.86 45.4709C349.338 44.4817 348.223 43.1903 346.6 42.1736C344.976 41.1569 343.242 40.6486 342.018 40.5387C340.78 40.415 340.05 40.6211 340.078 40.8409C340.119 41.3218 342.871 41.734 345.568 43.4788C348.319 45.1687 349.668 47.3257 350.191 47.202V47.1883Z" fill="#282849"/>
<path d="M333.322 38.5878C333.281 38.368 332.511 38.2168 331.286 38.2855C330.062 38.3542 328.369 38.6702 326.773 39.3434C325.177 40.0166 324.021 40.841 323.43 41.5966C322.838 42.366 322.99 42.9293 323.334 42.9705C323.691 43.0254 324.132 42.682 324.902 42.2561C325.673 41.8439 326.842 41.2531 328.163 40.6898C330.818 39.5632 333.405 39.0412 333.336 38.574L333.322 38.5878Z" fill="#282849"/>
<path d="M328.411 52.4091C327.475 52.4091 326.567 51.1726 326.705 49.6613C326.828 48.15 327.957 46.9547 328.892 46.9822C329.842 47.0097 330.254 48.2324 330.131 49.7162C329.993 51.2 329.36 52.4091 328.411 52.3953V52.4091Z" fill="#282849"/>
<path d="M343.298 54.6897C342.266 54.6897 341.261 53.3158 341.413 51.6397C341.55 49.9498 342.789 48.6171 343.82 48.6584C344.866 48.6996 345.334 50.0597 345.196 51.7084C345.045 53.357 344.343 54.7035 343.298 54.7035V54.6897Z" fill="#282849"/>
<g style="mix-blend-mode:multiply" opacity="0.8">
<path d="M332.813 45.0725C332.511 46.7487 332.318 48.3973 332.139 50.046L331.616 54.9645L331.493 56.1873L331.438 56.7918C331.438 56.9017 331.396 57.0116 331.355 57.1078C331.272 57.3138 331.094 57.5062 330.86 57.6436C330.736 57.7123 330.612 57.7535 330.461 57.7947C330.158 57.8634 329.855 58.0145 329.594 58.2344C329.112 58.6877 328.92 59.2648 328.92 59.8006C328.92 60.3364 329.057 60.831 329.305 61.2569C329.828 62.0812 330.571 62.5484 331.327 62.9468C330.818 62.2598 330.268 61.6004 330.089 60.8997C329.883 60.2402 330.103 59.4846 330.461 59.2922C330.529 59.251 330.626 59.2373 330.722 59.2373C330.97 59.2098 331.259 59.1274 331.506 59.0175C332.015 58.7976 332.511 58.413 332.813 57.8771C332.965 57.6161 333.061 57.3138 333.116 57.0116L333.212 56.3796L333.364 55.1294C333.543 53.4532 333.584 51.7633 333.515 50.0872C333.446 48.4111 333.254 46.7212 332.841 45.0725H332.813Z" fill="#E59D67"/>
</g>
<g style="mix-blend-mode:multiply" opacity="0.8">
<path d="M328.947 67.618C329.112 67.5356 329.539 67.9065 330.351 68.3462C331.149 68.7858 332.373 69.2804 333.9 69.4315C335.414 69.5826 336.872 69.3491 337.89 69.0743C338.922 68.8133 339.555 68.5522 339.652 68.6621C339.748 68.7446 339.253 69.2117 338.179 69.6651C337.12 70.1185 335.414 70.5169 333.611 70.3383C331.809 70.1597 330.447 69.4727 329.718 68.8408C328.975 68.2088 328.81 67.6867 328.947 67.618Z" fill="#E59D67"/>
</g>
<path d="M269.963 35.3317C269.963 35.3317 268.229 43.0529 277.131 52.5739C277.131 52.5739 258.653 47.2295 253.301 35.3317H269.963Z" fill="#A7A7EA"/>
<path d="M243.973 40.1128L283.158 40.1128C287.694 40.1128 291.372 36.4406 291.372 31.9107V8.56837C291.372 4.03848 287.694 0.366272 283.158 0.366272L243.973 0.366272C239.436 0.366272 235.759 4.03848 235.759 8.56837V31.9107C235.759 36.4406 239.436 40.1128 243.973 40.1128Z" fill="#A7A7EA"/>
<path d="M273.706 20.2464C273.706 22.321 275.384 23.9971 277.462 23.9971C279.539 23.9971 281.218 22.321 281.218 20.2464C281.218 18.1718 279.539 16.4957 277.462 16.4957C275.384 16.4957 273.706 18.1718 273.706 20.2464Z" fill="white"/>
<path d="M259.809 20.2464C259.809 22.321 261.488 23.9971 263.565 23.9971C265.643 23.9971 267.321 22.321 267.321 20.2464C267.321 18.1718 265.643 16.4957 263.565 16.4957C261.488 16.4957 259.809 18.1718 259.809 20.2464Z" fill="white"/>
<path d="M245.913 20.2464C245.913 22.321 247.591 23.9971 249.669 23.9971C251.746 23.9971 253.425 22.321 253.425 20.2464C253.425 18.1718 251.746 16.4957 249.669 16.4957C247.591 16.4957 245.913 18.1718 245.913 20.2464Z" fill="white"/>
<path d="M230.874 59.5945C239.324 59.5945 246.174 52.7545 246.174 44.3169C246.174 35.8793 239.324 29.0393 230.874 29.0393C222.425 29.0393 215.575 35.8793 215.575 44.3169C215.575 52.7545 222.425 59.5945 230.874 59.5945Z" fill="#5B5B9C"/>
<path d="M233.888 57.3001L244.991 64.2245L240.533 50.3757L233.888 57.3001Z" fill="#5B5B9C"/>
<path d="M237.465 42.2698C237.465 41.363 236.722 40.6211 235.814 40.6211H233.117C233.117 39.8243 233.048 38.684 232.993 37.8047C232.952 37.2414 232.677 36.9254 232.443 36.7605C231.796 36.3071 230.861 36.5407 230.682 36.5957C230.407 36.6781 230.241 36.9391 230.269 37.2139C230.448 38.9725 229.292 41.0058 228.123 41.8714C228.081 41.8988 227.999 41.9263 227.902 41.9675V41.679C227.902 41.363 227.641 41.102 227.325 41.102H224.27C223.954 41.102 223.692 41.363 223.692 41.679V49.6338C223.692 49.9498 223.954 50.2109 224.27 50.2109H227.338C227.641 50.2109 227.861 49.9361 227.875 49.6338V49.3178H235.181C235.855 49.3178 236.46 48.8507 236.543 48.1775C236.626 47.5318 236.048 47.3532 235.993 47.1883C236.405 46.8861 237.217 46.7349 237.217 46.1991C237.217 45.6083 236.681 45.5396 236.639 45.3885C237.052 45.0863 237.492 44.5917 237.492 44.0559C237.492 43.7261 237.162 43.4101 236.983 43.1491C237.162 42.888 237.492 42.5721 237.492 42.2423L237.465 42.2698Z" fill="white"/>
</svg>
