<svg width="152" height="46" viewBox="0 0 152 46" fill="none" xmlns="http://www.w3.org/2000/svg">
<path d="M16.4611 1.79858C15.5318 1.79858 14.7353 2.47986 14.5229 3.37915L0.876099 10.4645V34.9633L9.55802 38.3424V35.4811L3.23907 33.0829V11.9088L15.5318 5.641C15.7973 5.77726 16.1159 5.85901 16.4345 5.85901C17.5231 5.85901 18.4258 4.95972 18.4258 3.81517C18.4258 2.69787 17.5496 1.79858 16.4611 1.79858Z" fill="#041222"/>
<path d="M17.4434 8.80212L11.4962 11.7453V40.8768C10.912 41.231 10.5138 41.8578 10.5138 42.6208C10.5138 43.7381 11.39 44.6374 12.4785 44.6374C13.5671 44.6374 14.4432 43.7381 14.4432 42.6208C14.4432 41.9396 14.1246 41.34 13.6202 40.9858V13.4076L17.4168 11.4727L21.187 13.2713V33.3554H23.3641V11.936L17.4434 8.80212Z" fill="#041222"/>
<path d="M39.2677 33.3827C38.8429 33.3827 38.4181 33.3282 38.0199 33.2192C35.8428 32.5924 34.4091 30.6576 34.4091 28.3685V17.0048C34.4091 14.6884 35.8693 12.7536 38.0199 12.1813C40.1705 11.5818 42.4007 12.5083 43.4892 14.4977C43.6485 14.7429 43.7016 14.9882 43.6485 15.2334C43.5954 15.4787 43.4361 15.724 43.1441 15.8875C42.9051 16.0237 42.6131 16.051 42.3741 15.9965C42.1352 15.9147 41.9228 15.7512 41.79 15.5332C41.1263 14.3341 39.8253 13.7891 38.5243 14.1434C37.2765 14.4704 36.3472 15.6695 36.3472 17.0048V28.3413C36.3472 29.7311 37.2234 30.8756 38.4978 31.2026C39.7988 31.5569 41.0997 31.0119 41.7635 29.8128C41.8962 29.5948 42.0821 29.4313 42.3476 29.3495C42.6131 29.2678 42.8786 29.295 43.1175 29.4313C43.4096 29.6221 43.5689 29.8401 43.622 30.1126C43.6751 30.3578 43.622 30.6031 43.4627 30.8756C42.6131 32.4562 40.9935 33.3827 39.2677 33.3827ZM39.3208 12.7536C38.9491 12.7536 38.5774 12.8081 38.2057 12.9171C36.3738 13.4076 35.1259 15.0699 35.1259 17.032V28.3413C35.1259 30.3033 36.3738 31.9657 38.2057 32.4834C40.0377 32.974 41.9493 32.1564 42.852 30.4941C42.9051 30.4396 42.9317 30.3306 42.9317 30.2761C42.9317 30.2216 42.852 30.1671 42.7458 30.0853C42.6927 30.0581 42.6396 30.0581 42.56 30.0853C42.5334 30.0853 42.4538 30.1126 42.4272 30.1943C41.6042 31.6659 39.9315 32.3744 38.3385 31.9384C36.7455 31.5296 35.6304 30.0581 35.6304 28.3413V17.0048C35.6304 15.3152 36.772 13.8164 38.3385 13.4076C39.9049 12.9716 41.6042 13.6801 42.4272 15.1517C42.4803 15.2334 42.5334 15.2607 42.56 15.2607C42.6396 15.2879 42.6927 15.2607 42.7724 15.2334C42.852 15.1789 42.9317 15.0972 42.9317 15.0427C42.9317 14.9882 42.9051 14.9064 42.8786 14.8519C42.1352 13.5166 40.7546 12.7536 39.3208 12.7536Z" fill="#041222"/>
<path d="M34.7542 28.3413V17.0048C34.7542 14.8792 36.1082 13.0806 38.0995 12.5356C40.0907 11.9633 42.1617 12.8353 43.1706 14.6612C43.4095 15.0154 43.3033 15.3152 42.9316 15.5604C42.6396 15.724 42.2413 15.6149 42.082 15.3152C41.3386 13.9799 39.8518 13.3531 38.4181 13.7346C36.9844 14.0889 35.9755 15.4787 35.9755 16.9775V28.3413C35.9755 29.9218 36.9844 31.2026 38.4181 31.5841C39.8518 31.9929 41.3386 31.3389 42.082 30.0036C42.2413 29.7038 42.6396 29.5948 42.9316 29.7583C43.3033 30.0036 43.383 30.3033 43.1706 30.6576C42.1617 32.4834 40.0907 33.3555 38.0995 32.8377C36.1348 32.2654 34.7542 30.4668 34.7542 28.3413Z" fill="#041222"/>
<path d="M59.5255 33.3555C56.8439 33.3555 54.6403 31.1209 54.6403 28.3412V17.0048C54.6403 14.2524 56.8174 11.9905 59.5255 11.9905C62.2071 11.9905 64.4107 14.2251 64.4107 17.0048V28.3412C64.4107 31.0936 62.2071 33.3555 59.5255 33.3555ZM59.5255 14.0071C57.9059 14.0071 56.605 15.3424 56.605 17.0048V28.3412C56.605 30.0036 57.9059 31.3389 59.5255 31.3389C61.1451 31.3389 62.446 30.0036 62.446 28.3412V17.0048C62.446 15.3424 61.1451 14.0071 59.5255 14.0071Z" fill="#041222"/>
<path d="M86.8191 33.3555C86.2085 33.3555 85.8368 33.0012 85.8368 32.3472V17.4953C85.0934 19.0758 84.4562 20.4384 83.9517 21.5557L82.4914 24.7713C82.3321 25.1256 82.0135 25.3436 81.6153 25.3436C81.2436 25.3436 80.925 25.1529 80.7126 24.7986L80.686 24.7713L79.2258 21.5829C78.6417 20.2476 77.9779 18.7761 77.3938 17.5225V32.3744C77.3938 32.9467 76.969 33.3827 76.4114 33.3827C75.7742 33.3827 75.4291 33.0284 75.4291 32.3744V13.0261C75.4291 12.4811 75.6946 12.1268 76.2256 12.0178C76.6504 11.9088 77.0486 12.1268 77.2876 12.5628C77.7655 13.5711 78.1903 14.5249 78.6151 15.4242C78.8541 15.9147 79.0665 16.4052 79.2789 16.8957C79.7568 17.9585 80.2612 19.0758 80.7391 20.0296C81.0843 20.7654 81.3763 21.4194 81.6153 21.9372C81.8808 21.3377 82.2259 20.5747 82.6242 19.7299C83.049 18.8306 83.5003 17.8223 83.9251 16.8685C84.1641 16.3507 84.403 15.8057 84.6685 15.2607C85.0668 14.3886 85.4651 13.4893 85.9164 12.5628C86.1819 12.0995 86.5536 11.8815 87.0315 11.9905C87.536 12.0995 87.8015 12.4538 87.8015 12.9988V32.3472C87.8015 32.9194 87.3767 33.3555 86.8191 33.3555ZM85.8633 15.7239L86.5536 15.8875V32.3472C86.5536 32.5652 86.5802 32.6197 86.8191 32.6197C86.9784 32.6197 87.0846 32.5107 87.0846 32.3472V12.9988C87.0846 12.7808 87.0315 12.7536 86.8988 12.7263C86.766 12.6991 86.6864 12.7263 86.5802 12.9171C86.1554 13.8436 85.7306 14.7429 85.3589 15.5877C85.1199 16.1327 84.8544 16.6777 84.6155 17.1955C84.1907 18.1493 83.7393 19.1303 83.3145 20.0296C82.7304 21.3104 82.2259 22.4005 81.987 22.9728H81.3232C81.1108 22.4277 80.6329 21.4739 80.1019 20.3294C79.6506 19.3484 79.1196 18.2311 78.6417 17.1683C78.4293 16.705 78.1903 16.1872 77.9779 15.6967C77.5531 14.7974 77.1283 13.8436 76.6769 12.8626C76.5707 12.6718 76.4645 12.6718 76.4114 12.6991C76.2521 12.7263 76.199 12.7808 76.199 12.9716V32.3199C76.199 32.5379 76.2256 32.5924 76.4645 32.5924C76.6238 32.5924 76.73 32.4834 76.73 32.3199V15.8875L77.4203 15.7239C78.1372 17.25 79.1196 19.3484 79.9692 21.2559L81.4294 24.4443C81.5091 24.5806 81.6153 24.6078 81.6949 24.6078C81.8011 24.6078 81.8808 24.5533 81.9073 24.4716L83.3676 21.2559C83.9517 19.7844 84.8279 17.9313 85.8633 15.7239Z" fill="#041222"/>
<path d="M75.8008 32.3472V12.9988C75.8008 12.6446 75.9601 12.4266 76.2787 12.3721C76.5707 12.3176 76.7831 12.4266 76.969 12.7263C77.6858 14.2524 78.3231 15.6967 78.9603 17.032C79.9957 19.3211 81.1905 21.8282 81.6153 22.8365C82.0401 21.8827 83.2083 19.3484 84.2437 17.032C84.8544 15.6967 85.5182 14.2524 86.235 12.7263C86.3943 12.4266 86.6333 12.2903 86.9519 12.3721C87.2705 12.4266 87.4298 12.6446 87.4298 12.9988V32.3472C87.4298 32.7014 87.1643 32.974 86.8191 32.974C86.3943 32.974 86.2085 32.7832 86.2085 32.3472V15.8875C85.4651 17.468 84.4562 19.5936 83.6331 21.4195L82.1728 24.6078C82.0666 24.8531 81.8808 24.9621 81.6153 24.9621C81.3498 24.9621 81.1639 24.8258 81.0312 24.6078L79.5709 21.4195C78.7479 19.5936 77.7921 17.4408 77.0486 15.8875V32.3472C77.0486 32.7014 76.7831 32.974 76.438 32.974C75.9866 32.974 75.8008 32.7832 75.8008 32.3472Z" fill="#041222"/>
<path d="M128.238 33.192H121.733C121.096 33.192 120.75 32.8377 120.75 32.1837V13.1078C120.75 12.4811 121.096 12.0995 121.733 12.0995H128.238C128.848 12.0995 129.22 12.4538 129.22 13.1078C129.22 13.7346 128.875 14.1161 128.238 14.1161H122.715V21.3104H127.574C128.184 21.3104 128.556 21.6647 128.556 22.3187C128.556 22.9455 128.211 23.327 127.574 23.327H122.715V31.1754H128.238C128.848 31.1754 129.22 31.5296 129.22 32.1837C129.22 32.8377 128.875 33.192 128.238 33.192ZM121.759 12.8626C121.547 12.8626 121.494 12.8898 121.494 13.1351V32.2109C121.494 32.4289 121.52 32.4834 121.759 32.4834H128.238C128.45 32.4834 128.503 32.4562 128.503 32.2109C128.503 31.9929 128.476 31.9384 128.238 31.9384H122.343L121.972 31.5569V22.9728L122.343 22.5913H127.574C127.786 22.5913 127.813 22.564 127.813 22.3187C127.813 22.1007 127.786 22.0462 127.574 22.0462H122.343L121.972 21.6647V13.7619L122.343 13.3804H128.238C128.45 13.3804 128.503 13.3531 128.503 13.1078C128.503 12.8898 128.476 12.8353 128.238 12.8353H121.759V12.8626Z" fill="#041222"/>
<path d="M121.122 32.1837V13.1078C121.122 12.6718 121.308 12.481 121.733 12.481H128.238C128.662 12.481 128.848 12.6718 128.848 13.1078C128.848 13.5438 128.662 13.7346 128.238 13.7346H122.343V21.6647H127.574C127.999 21.6647 128.184 21.8555 128.184 22.2915C128.184 22.7275 127.999 22.9183 127.574 22.9183H122.343V31.5296H128.238C128.662 31.5296 128.848 31.7204 128.848 32.1564C128.848 32.5924 128.662 32.7832 128.238 32.7832H121.733C121.334 32.8377 121.122 32.6197 121.122 32.1837Z" fill="#041222"/>
<path d="M145.469 33.301C144.911 33.301 144.486 32.865 144.486 32.2927V14.0889H141.247C140.69 14.0889 140.265 13.6529 140.265 13.0806C140.265 12.5083 140.69 12.0723 141.247 12.0723H149.69C150.248 12.0723 150.699 12.5083 150.699 13.0806C150.699 13.6529 150.248 14.0889 149.69 14.0889H146.478V32.2927C146.504 32.8377 146.053 33.301 145.469 33.301ZM141.247 12.8081C141.088 12.8081 140.982 12.9171 140.982 13.0806C140.982 13.2441 141.088 13.3531 141.247 13.3531H144.858L145.23 13.7346V32.3199C145.23 32.4834 145.336 32.5924 145.495 32.5924C145.628 32.5924 145.787 32.5107 145.787 32.3199V13.7074L146.159 13.3259H149.743C149.876 13.3259 150.035 13.2441 150.035 13.0533C150.035 12.8898 149.903 12.7808 149.743 12.7808H141.247V12.8081Z" fill="#041222"/>
<path d="M150.354 13.0806C150.354 13.4349 150.062 13.7074 149.69 13.7074H146.106V32.2927C146.106 32.647 145.814 32.9195 145.469 32.9195C145.123 32.9195 144.858 32.647 144.858 32.2927V13.7074H141.247C140.875 13.7074 140.636 13.4349 140.636 13.0806C140.636 12.7263 140.902 12.4538 141.247 12.4538H149.69C150.062 12.4538 150.354 12.6991 150.354 13.0806Z" fill="#041222"/>
<path d="M99.8022 33.3555C99.2446 33.3555 98.8198 32.9467 98.8198 32.4017V14.7974C98.8198 14.2524 99.2446 13.8436 99.8022 13.8436C100.36 13.8436 100.811 14.2524 100.811 14.7974V32.4017C100.811 32.9467 100.36 33.3555 99.8022 33.3555ZM99.8022 14.5794C99.6694 14.5794 99.5367 14.6339 99.5367 14.7702V32.3744C99.5367 32.5379 99.6694 32.5652 99.8022 32.5652C99.9349 32.5652 100.094 32.4834 100.094 32.3744V14.7974C100.094 14.6612 99.9349 14.5794 99.8022 14.5794Z" fill="#041222"/>
<path d="M99.1649 32.4017V14.7974C99.1649 14.4704 99.4304 14.2251 99.7756 14.2251C100.121 14.2251 100.413 14.4704 100.413 14.7974V32.4017C100.413 32.7287 100.121 32.9739 99.7756 32.9739C99.4304 32.9739 99.1649 32.7287 99.1649 32.4017Z" fill="#041222"/>
<path d="M108.643 33.3555C108.086 33.3555 107.661 32.9467 107.661 32.4017V14.7974C107.661 14.2524 108.086 13.8436 108.643 13.8436C109.201 13.8436 109.652 14.2524 109.652 14.7974V32.4017C109.652 32.9467 109.227 33.3555 108.643 33.3555ZM108.643 14.5794C108.537 14.5794 108.378 14.6339 108.378 14.7702V32.3744C108.378 32.5379 108.511 32.5652 108.643 32.5652C108.776 32.5652 108.935 32.4834 108.935 32.3744V14.7974C108.935 14.6612 108.776 14.5794 108.643 14.5794Z" fill="#041222"/>
<path d="M108.033 32.4017V14.7974C108.033 14.4704 108.298 14.2251 108.643 14.2251C108.989 14.2251 109.281 14.4704 109.281 14.7974V32.4017C109.281 32.7287 108.989 32.9739 108.643 32.9739C108.298 32.9739 108.033 32.7287 108.033 32.4017Z" fill="#041222"/>
<path d="M104.209 14.3069L99.8287 16.16L99.3242 15.833V14.2251L99.5366 13.8709L104.05 11.9633H104.342L108.856 13.8709L109.068 14.2251V15.833L108.564 16.16L104.209 14.3069Z" fill="#041222"/>
<path d="M108.723 14.2251L104.209 12.2903L99.6959 14.2251V15.833L104.209 13.8981L108.723 15.833V14.2251Z" fill="#041222"/>
</svg>
